<svg width="198" height="198" viewBox="0 0 198 198" fill="none" xmlns="http://www.w3.org/2000/svg">
<circle cx="99" cy="99" r="86" fill="#FF5B5B"/>
<circle cx="99" cy="99" r="98.5" stroke="#FF5B5B"/>
<path d="M131 89.7273V99C131 107.607 127.629 115.862 121.627 121.949C115.626 128.035 107.487 131.455 99 131.455M99 131.455C90.5131 131.455 82.3737 128.035 76.3726 121.949C70.3714 115.862 67 107.607 67 99V89.7273M99 131.455V150M80.7143 150H117.286M99 48C95.3627 48 91.8745 49.4654 89.3025 52.0739C86.7306 54.6823 85.2857 58.2202 85.2857 61.9091V99C85.2857 102.689 86.7306 106.227 89.3025 108.835C91.8745 111.444 95.3627 112.909 99 112.909C102.637 112.909 106.126 111.444 108.697 108.835C111.269 106.227 112.714 102.689 112.714 99V61.9091C112.714 58.2202 111.269 54.6823 108.697 52.0739C106.126 49.4654 102.637 48 99 48Z" stroke="white" stroke-width="10" stroke-linecap="round" stroke-linejoin="round"/>
</svg>
