<svg width="51" height="44" viewBox="0 0 51 44" fill="none" xmlns="http://www.w3.org/2000/svg">
<path d="M19.6229 0.630498L19.6231 0.630461C21.9002 -0.0159588 23.9916 1.84251 23.4603 4.15493L19.6229 0.630498ZM19.6229 0.630498C19.5002 0.66537 19.3888 0.735544 19.3068 0.792294C19.2136 0.856727 19.1058 0.941671 18.9826 1.04574C18.7355 1.25443 18.3979 1.56427 17.9432 1.99929C17.0321 2.87085 15.6245 4.27028 13.4785 6.42834L8.31099 11.625L6.94202 10.2346L6.58573 10.5854L6.94202 10.2346C6.03962 9.31808 5.43248 8.73789 4.93553 8.39133C4.40101 8.01856 3.97254 7.90087 3.45194 7.8982M19.6229 0.630498L0.774632 12.1416M0.774632 12.1416L0.774629 12.1416C-0.127167 10.1946 1.30407 7.88708 3.45194 7.8982M0.774632 12.1416C0.816484 12.2319 0.881757 12.3251 0.938325 12.4009C1.00129 12.4852 1.08002 12.5826 1.16981 12.689C1.3498 12.9023 1.58726 13.1669 1.86114 13.4624C2.40968 14.0543 3.11696 14.7835 3.83156 15.4988C4.54614 16.2141 5.27175 16.9191 5.85722 17.4624C6.14949 17.7335 6.41045 17.9678 6.61941 18.1438C6.72358 18.2315 6.81911 18.3084 6.9017 18.3694C6.97308 18.4221 7.0699 18.4898 7.16679 18.5306L7.16683 18.5306M0.774632 12.1416L7.16683 18.5306M3.45194 7.8982L3.44935 8.3982L3.45194 7.8982ZM7.16683 18.5306C7.5324 18.6843 7.96146 18.7469 8.3692 18.7383M7.16683 18.5306L8.3692 18.7383M8.49687 28.3067L8.49685 28.3067C8.37277 28.3769 8.2404 28.451 8.08048 28.5078C7.91619 28.5661 7.74312 28.5996 7.52699 28.6206C7.11567 28.6605 6.46239 28.6613 5.26487 28.6613C4.1189 28.6613 3.46688 28.6577 3.04987 28.6222C2.8351 28.6039 2.66164 28.5758 2.50245 28.5281C2.34024 28.4794 2.2131 28.4163 2.09306 28.3512L8.49687 28.3067ZM8.49687 28.3067C9.41727 27.7863 9.93123 26.9538 9.9984 25.8913L9.4994 25.8598M8.49687 28.3067L9.4994 25.8598M9.4994 25.8598L9.99841 25.8913C10.0278 25.4267 9.98222 25.0016 9.83027 24.6029C9.67793 24.2031 9.43055 23.861 9.10094 23.5458L8.75534 23.9071L9.10093 23.5457C8.93078 23.383 8.75566 23.2321 8.5421 23.1105C8.32428 22.9866 8.08872 22.9055 7.80514 22.8516C7.26649 22.7492 6.49286 22.7365 5.23884 22.7389L5.23881 22.7389M9.4994 25.8598L5.23881 22.7389M5.23881 22.7389C4.32774 22.7407 3.70776 22.7513 3.27321 22.7799C2.8477 22.808 2.54562 22.8554 2.30392 22.9609M5.23881 22.7389L0.508487 25.6679M8.3692 18.7383C8.77695 18.7297 9.20302 18.649 9.56183 18.4799M8.3692 18.7383L9.56183 18.4799M9.56183 18.4799C9.66745 18.4301 9.78408 18.3372 9.8756 18.2614M9.56183 18.4799L9.8756 18.2614M9.8756 18.2614C9.98459 18.1711 10.1219 18.0499 10.2861 17.8996M9.8756 18.2614L10.2861 17.8996M10.2861 17.8996C10.6152 17.5985 11.0674 17.167 11.6447 16.6035M10.2861 17.8996L11.6447 16.6035M11.6447 16.6035C12.8001 15.4757 14.4684 13.8079 16.6794 11.5709M11.6447 16.6035L16.6794 11.5709M16.6794 11.5709C19.8338 8.37942 21.4714 6.71927 22.3349 5.78727M16.6794 11.5709L22.3349 5.78727M22.3349 5.78727C22.7639 5.32426 23.0217 5.02008 23.1808 4.78599M22.3349 5.78727L23.1808 4.78599M23.1808 4.78599C23.3576 4.52593 23.4163 4.34611 23.4602 4.155L23.1808 4.78599ZM2.30392 22.9609C1.22853 23.4304 0.508487 24.5045 0.508487 25.6679M2.30392 22.9609L2.50397 23.4191L2.3039 22.9609C2.30391 22.9609 2.30391 22.9609 2.30392 22.9609ZM0.508487 25.6679C0.508487 26.252 0.633658 26.7839 0.906727 27.2471M0.508487 25.6679L0.906727 27.2471M0.906727 27.2471C1.18003 27.7106 1.58362 28.0749 2.09303 28.3512L0.906727 27.2471ZM19.7596 1.11144L19.7596 1.11146L19.7596 1.11144ZM23.3217 8.04736L23.3216 8.0474C22.9144 8.16564 22.4996 8.49827 22.1878 8.83142C21.872 9.16877 21.569 9.60601 21.4575 10.023C21.1066 11.3366 21.6565 12.7445 22.8151 13.4308C22.8152 13.4308 22.8152 13.4308 22.8152 13.4308L23.3585 13.7527L23.4763 13.8226H23.6133H48.2314H48.3629L48.4774 13.7578L48.99 13.468L48.744 13.0327L48.9901 13.468C49.9104 12.9476 50.4244 12.1151 50.4916 11.0526C50.5209 10.588 50.4754 10.1629 50.3234 9.76416C50.1711 9.36438 49.9237 9.02229 49.5941 8.70704C49.5722 8.68603 49.5489 8.66232 49.5237 8.63673C49.3924 8.50316 49.2108 8.31836 48.9061 8.19874C48.5757 8.06903 48.1037 8.00665 47.3211 7.96766C45.886 7.89616 43.1731 7.8989 37.791 7.90432C37.2104 7.9049 36.5988 7.90552 35.9544 7.90608C32.2834 7.90927 29.2162 7.92283 27.0373 7.94402C25.9481 7.95462 25.0792 7.96713 24.4672 7.98125C24.1616 7.9883 23.9173 7.99581 23.7407 8.00382C23.6528 8.0078 23.5779 8.01207 23.519 8.01679L23.5155 8.01707C23.4767 8.02016 23.3924 8.02687 23.3217 8.04736ZM15.9593 22.8861L15.9592 22.8861C15.552 23.0044 15.1372 23.337 14.8254 23.6701C14.5097 24.0075 14.2066 24.4447 14.0951 24.8617L14.5782 24.9908L14.0951 24.8617C13.7442 26.1753 14.2941 27.5832 15.4527 28.2695C15.4528 28.2695 15.4528 28.2695 15.4528 28.2696L15.9961 28.5914L16.1139 28.6613H16.2509H48.2314H48.3629L48.4774 28.5965L48.99 28.3067L48.744 27.8715L48.9901 28.3067C49.9104 27.7863 50.4244 26.9538 50.4916 25.8913C50.5209 25.4267 50.4754 25.0016 50.3234 24.6029C50.1711 24.2031 49.9237 23.861 49.5941 23.5458L49.5941 23.5457C49.5737 23.5262 49.5512 23.5023 49.5259 23.4753C49.4046 23.3462 49.2174 23.147 48.8802 23.0283C48.5235 22.9029 47.9725 22.8419 46.99 22.8036C45.2173 22.7344 41.8159 22.7372 35.0456 22.7427C34.178 22.7434 33.2551 22.7441 32.2733 22.7448C27.4296 22.748 23.4432 22.7614 20.638 22.7825C19.2356 22.793 18.127 22.8055 17.3537 22.8196C16.9674 22.8266 16.6624 22.8342 16.4453 22.8421C16.3373 22.8461 16.2476 22.8503 16.1792 22.8549C16.1453 22.8572 16.1126 22.8598 16.0837 22.863L16.0825 22.8631C16.064 22.8651 16.0121 22.8708 15.9593 22.8861ZM15.9593 37.7248L15.9592 37.7248C15.552 37.8431 15.1372 38.1757 14.8254 38.5089C14.5097 38.8462 14.2066 39.2834 14.0951 39.7004L14.5782 39.8295L14.0951 39.7004C13.7442 41.014 14.2941 42.422 15.4528 43.1083L15.9961 43.4302L16.1139 43.5H16.2509H48.2314H48.3629L48.4774 43.4352L48.99 43.1454C49.9104 42.625 50.4244 41.7926 50.4916 40.73C50.5209 40.2654 50.4754 39.8404 50.3234 39.4416C50.1711 39.0418 49.9237 38.6997 49.5941 38.3845L49.5941 38.3845C49.5737 38.365 49.5512 38.341 49.5259 38.314C49.4046 38.185 49.2174 37.9857 48.8802 37.8671C48.5235 37.7416 47.9725 37.6806 46.99 37.6423C45.2172 37.5731 41.8157 37.5759 35.045 37.5814C34.1776 37.5821 33.2549 37.5829 32.2733 37.5835C27.4296 37.5868 23.4432 37.6001 20.638 37.6212C19.2356 37.6317 18.127 37.6442 17.3537 37.6583C16.9674 37.6654 16.6624 37.6729 16.4453 37.6809C16.3373 37.6848 16.2476 37.689 16.1792 37.6936C16.1453 37.6959 16.1126 37.6985 16.0837 37.7017L16.0824 37.7018C16.0639 37.7038 16.0121 37.7095 15.9593 37.7248ZM2.09306 43.1899C2.2131 43.255 2.34024 43.3181 2.50245 43.3668C2.66164 43.4145 2.8351 43.4426 3.04987 43.4609C3.46688 43.4964 4.1189 43.5 5.26487 43.5C6.46239 43.5 7.11567 43.4992 7.52699 43.4593C7.74312 43.4383 7.91619 43.4049 8.08048 43.3465C8.2404 43.2897 8.37277 43.2156 8.49685 43.1454L8.25078 42.7102L8.49687 43.1454C9.41727 42.625 9.93123 41.7926 9.9984 40.73L9.4994 40.6985L9.99841 40.73C10.0278 40.2654 9.98222 39.8404 9.83027 39.4416C9.67793 39.0418 9.43055 38.6997 9.10094 38.3845L8.75534 38.7458L9.10093 38.3845C8.93078 38.2217 8.75566 38.0708 8.5421 37.9493C8.32428 37.8253 8.08873 37.7442 7.80514 37.6903C7.26649 37.5879 6.49286 37.5752 5.23884 37.5776C4.32774 37.5794 3.70776 37.59 3.27321 37.6186C2.84769 37.6467 2.5456 37.6941 2.30392 37.7996C1.22853 38.2691 0.508487 39.3432 0.508487 40.5066C0.508487 41.0907 0.633658 41.6227 0.906727 42.0858C1.18003 42.5493 1.58364 42.9137 2.09306 43.1899Z" fill="#FFFAEF" stroke="#FF5B5B"/>
</svg>
