<svg width="50" height="58" viewBox="0 0 50 58" fill="none" xmlns="http://www.w3.org/2000/svg">
<path fill-rule="evenodd" clip-rule="evenodd" d="M40.3762 0.32041C38.8998 0.779176 37.3131 2.20588 36.627 3.69099C35.6278 5.85395 36 9.07597 37.4333 10.6726C37.793 11.0732 37.7865 11.1558 37.346 11.7675C37.084 12.1315 35.423 14.5012 33.6548 17.0337C31.8866 19.5663 30.4143 21.6747 30.383 21.7193C30.3518 21.7639 29.6705 21.5591 28.8687 21.2644C27.6688 20.8236 27.0601 20.7482 25.4231 20.8388C23.2919 20.9566 22.0858 21.42 20.3729 22.7788L19.4749 23.4911L14.603 19.6797C11.3375 17.1248 9.75732 15.7408 9.80973 15.4817C9.85301 15.2689 9.94556 14.4316 10.0155 13.621C10.1687 11.8482 9.63784 10.5839 8.25957 9.43852C4.9787 6.71235 0.019045 9.08033 5.25995e-05 13.3825C-0.0146124 16.7049 3.03955 19.1419 6.24614 18.3664C6.90775 18.2064 7.50901 17.9774 7.58258 17.8577C7.65614 17.7377 7.86313 17.6396 8.04248 17.6396C8.33001 17.6396 16.748 24.0676 17.8478 25.1269C18.245 25.5096 18.2472 25.6061 17.8822 26.686C17.0425 29.1703 17.8175 32.7595 19.6473 34.8604L20.3789 35.7004L17.4572 39.8598C15.8503 42.1475 14.4679 44.0873 14.3852 44.1707C14.3028 44.254 13.5462 44.0883 12.7045 43.8023C9.39887 42.6795 6.12329 44.0948 4.54404 47.3285C3.86103 48.7268 3.7966 49.0496 3.88123 50.6469C4.09327 54.6471 6.77865 57.2505 10.693 57.2505C15.8988 57.2505 19.0696 51.9389 16.7352 47.129L16.0626 45.743L19.0665 41.4459C22.381 36.7046 22.0144 36.9676 24.5767 37.4947C25.8655 37.7598 27.6431 37.6239 28.8439 37.1683C29.1053 37.0691 30.221 38.5424 32.8939 42.5147L36.583 47.9981L35.899 49.3591C34.3479 52.4447 35.3845 55.8829 38.3401 57.4564C39.7321 58.1973 42.0482 58.1786 43.5895 57.4138C46.2419 56.0974 47.4329 52.6102 46.1943 49.7876C45.6995 48.6597 44.3069 47.3149 43.1135 46.8123C42.2093 46.4313 39.5994 46.3663 38.9647 46.7085C38.599 46.9061 38.0271 46.1766 34.8936 41.5143C32.8886 38.531 31.248 36.0135 31.248 35.9194C31.248 35.8256 31.6596 35.2988 32.1626 34.7487C32.6655 34.1988 33.2874 33.2328 33.5449 32.6019C33.8137 31.943 34.1661 31.4585 34.3734 31.4629C34.5717 31.4673 35.8653 31.7123 37.2484 32.0075L39.7626 32.544L39.9489 33.4521C40.755 37.3798 45.5729 38.8555 48.4972 36.0699C49.4021 35.2079 50 33.757 50 32.4228C50 29.5845 47.737 27.3517 44.8471 27.3389C42.942 27.3304 41.545 28.1982 40.2235 30.2109C40.1908 30.2608 38.8705 30.0502 37.2895 29.7432L34.415 29.1848L34.2541 28.0775C34.0616 26.7521 33.374 25.1025 32.5729 24.0436L31.9887 23.2718L35.7192 17.9716C39.1337 13.1205 39.5044 12.6775 40.097 12.7427C42.624 13.0209 44.1381 12.8949 45.2743 12.312C47.5303 11.1548 48.7854 9.07694 48.7903 6.49157C48.7987 1.99649 44.6869 -1.01929 40.3762 0.32041Z" fill="#FF5B5B"/>
</svg>
